<svg xmlns="http://www.w3.org/2000/svg" viewBox="0 0 512 512">
  <rect width="512" height="512" rx="120" fill="#0f172a"/>
  <g transform="translate(88, 88) scale(14)" fill="none" stroke="#ffffff" stroke-width="1.8" stroke-linecap="round" stroke-linejoin="round">
    <path d="M2 12C2 6.5 6.5 2 12 2a10 10 0 0 1 8 6" />
    <path d="M5 19.5C5.5 18 6 15 12 15a8 8 0 0 1 8 8.5" />
    <path d="M12 22v-4" />
    <path d="M16.5 19.5C17.5 17 19 14 19 12a7 7 0 0 0-14 0c0 2 1.5 5 2.5 7.5" />
    <path d="M15 11c0-1.7-1.3-3-3-3s-3 1.3-3 3" />
  </g>
</svg>